<mxfile host="app.diagrams.net" agent="Mozilla/5.0 (Macintosh; Intel Mac OS X 10_15_7) AppleWebKit/537.36 (KHTML, like Gecko) Chrome/136.0.0.0 Safari/537.36" version="28.2.3">
  <diagram name="Page-1" id="2r5TJLcM7Wu2bCWqM5fs">
    <mxGraphModel dx="881" dy="563" grid="1" gridSize="10" guides="1" tooltips="1" connect="1" arrows="1" fold="1" page="1" pageScale="1" pageWidth="850" pageHeight="1100" math="0" shadow="0">
      <root>
        <mxCell id="0" />
        <mxCell id="1" parent="0" />
        <mxCell id="EKH3HcRF3CZhmNi9bA64-2" value="          +-----------+&#xa;           |  Client  |&#xa;          +-----------+&#xa;                |&#xa;      +---------------------+&#xa;       |  Ubuntu (Web)  |&#xa;      +---------------------+&#xa;         /            \&#xa;        /              \&#xa;+-------------+     +-------------+&#xa;|    Rocky   |      | OpenBSD |&#xa;|    (NFS)    |     |DNS, LDAP|&#xa;+-------------+     +-------------+&#xa;        \                           |&#xa;         \                          |&#xa;      +-------------+          |&#xa;      |   Solaris   |           |&#xa;      | (Logging) |           |&#xa;      +-------------+.         |&#xa;                                    |&#xa;                   +-------------+&#xa;                   |  FreeBSD |&#xa;                   |     (Mail)    |&#xa;                   +-------------+" style="text;whiteSpace=wrap;" vertex="1" parent="1">
          <mxGeometry x="340" y="320" width="420" height="370" as="geometry" />
        </mxCell>
      </root>
    </mxGraphModel>
  </diagram>
</mxfile>
